<svg width="208" height="16" viewBox="0 0 208 16" fill="none" xmlns="http://www.w3.org/2000/svg">
<path d="M17.6451 7.5493C17.6451 10.8394 15.662 12.0338 11.1099 12.0338C6.55775 12.0338 4.57465 10.8394 4.57465 7.5493V0.315493H0V8.51831C0 13.769 4.32676 15.9324 11.1099 15.9324C17.893 15.9324 22.2197 13.769 22.2197 8.51831V0.315493H17.6451V7.5493Z" fill="white"/>
<path d="M28.557 15.6845V5.11549L41.8754 15.6845H46.9908V0.315493H42.4162V10.7042L29.2106 0.315493H23.9824V15.6845H28.557Z" fill="white"/>
<path d="M53.5465 15.6845V0.315493H48.9718V15.6845H53.5465Z" fill="white"/>
<path d="M55.0011 0.315493L64.556 8.04507L54.9785 15.6845H61.7842L68.2067 10.4789L74.5166 15.6845H81.4574L71.9025 7.97746L81.3673 0.315493H74.7644L68.2968 5.58873L61.8743 0.315493H55.0011Z" fill="white"/>
<path d="M103.112 11.3127C103.112 8.13521 101.129 6.60282 96.7118 6.35493L88.3287 5.85916C86.9315 5.76901 86.3456 5.6338 86.3456 4.77746C86.3456 3.85352 86.954 3.62817 91.1005 3.62817C94.954 3.62817 99.0104 4.05634 101.624 4.57465L102.368 1.12676C99.3259 0.47324 94.8864 0.0450712 92.1597 0.0450712C85.0386 0.0450712 82.0188 1.44225 82.0188 4.89014C82.0188 7.75211 83.7541 9.28451 88.5315 9.50986L97.0273 10.0056C98.2217 10.1183 98.785 10.231 98.785 11.1775C98.785 12.1014 98.1315 12.3944 94.5259 12.3944C89.9062 12.3944 86.0752 11.7859 82.9202 11.0873L82.2667 14.7606C85.0386 15.4366 89.478 15.9775 93.309 15.9775C100.903 15.9775 103.112 14.5577 103.112 11.3127Z" fill="white"/>
<path d="M112.429 4.23662V15.6845H117.004V4.23662H126.108V0.315493H103.302V4.23662H112.429Z" fill="white"/>
<path d="M144.76 7.5493C144.76 10.8394 142.777 12.0338 138.225 12.0338C133.673 12.0338 131.69 10.8394 131.69 7.5493V0.315493H127.115V8.51831C127.115 13.769 131.442 15.9324 138.225 15.9324C145.008 15.9324 149.335 13.769 149.335 8.51831V0.315493H144.76V7.5493Z" fill="white"/>
<path d="M166.061 15.6845C171.312 15.6845 174.872 13.9944 174.872 7.97746C174.872 2.14085 171.357 0.315493 166.061 0.315493H151.098V15.6845H166.061ZM155.672 4.23662H165.633C168.81 4.23662 170.14 4.98028 170.14 7.97746C170.14 11.0197 168.81 11.7634 165.633 11.7634H155.672V4.23662Z" fill="white"/>
<path d="M180.97 15.6845V0.315493H176.395V15.6845H180.97Z" fill="white"/>
<path d="M195.112 16C203.923 16 207.732 13.4986 207.732 8C207.732 2.50141 203.923 0 195.112 0C186.301 0 182.492 2.50141 182.492 8C182.492 13.4986 186.301 16 195.112 16ZM195.112 12.0789C188.937 12.0789 187.067 10.9746 187.067 8C187.067 5.02535 188.937 3.92113 195.112 3.92113C201.264 3.92113 203.067 5.02535 203.067 8C203.067 10.9746 201.264 12.0789 195.112 12.0789Z" fill="white"/>
</svg>
