<svg width="160" height="160" viewBox="0 0 160 160" fill="none" xmlns="http://www.w3.org/2000/svg">
<path d="M160 80C160 124.183 124.183 160 80 160C35.8173 160 2.17128e-05 124.183 1.39876e-05 80C6.26248e-06 35.8172 35.8172 -6.26248e-06 80 -1.39876e-05C124.183 -2.17128e-05 160 35.8172 160 80Z" fill="#121212"/>
<path d="M136.852 83.0435C136.722 84.908 138.012 86.0665 139.897 86.2605L136.717 86.4291L136.654 87.3301L140.996 87.6321L141.263 83.803L140.074 83.7203L139.906 86.1354C138.763 85.7541 138.043 85.0754 138.142 83.6614C138.256 82.0096 139.514 81.2798 141.291 81.4034C143.031 81.5244 144.201 82.4105 144.079 84.1624C143.985 85.5138 143.104 86.2572 142.01 86.4326L142.801 87.7198C144.355 87.2495 145.296 86.0073 145.419 84.243C145.6 81.6402 143.861 80.0732 141.396 79.9018C138.73 79.7164 137.001 80.8913 136.852 83.0435Z" fill="white"/>
<path d="M134.719 96.3151L135.936 96.6202L137.037 92.2279L139.373 92.8136L138.461 96.4515L139.678 96.7566L140.59 93.1186L142.756 93.6616L141.654 98.0539L142.871 98.3589L144.317 92.5918L136.165 90.548L134.719 96.3151Z" fill="white"/>
<path d="M132.483 102.362L139.068 105.147L138.062 107.527L139.217 108.015L141.777 101.962L140.622 101.473L139.62 103.842L133.035 101.056L132.483 102.362Z" fill="white"/>
<path d="M126.605 112.889L133.455 117.758L134.276 116.603L127.426 111.734L126.605 112.889Z" fill="white"/>
<path d="M123.668 116.771L127.08 119.898L128.276 120.858L126.881 120.617L120.863 119.832L119.981 120.794L126.177 126.472L127.135 125.427L123.732 122.308L122.498 121.297L124.028 121.576L129.931 122.375L130.821 121.404L124.625 115.726L123.668 116.771Z" fill="white"/>
<path d="M110.641 128.122L114.501 134.14L112.326 135.535L113.003 136.591L118.536 133.042L117.858 131.986L115.694 133.375L111.834 127.356L110.641 128.122Z" fill="white"/>
<path d="M102.771 132.195C100.514 133.169 99.7214 135.575 100.686 137.809C101.646 140.031 103.94 141.104 106.197 140.129C108.465 139.15 109.246 136.749 108.287 134.527C107.322 132.293 105.039 131.215 102.771 132.195ZM103.296 133.443C104.909 132.747 106.225 133.518 106.916 135.119C107.602 136.708 107.265 138.206 105.653 138.902C104.041 139.598 102.731 138.811 102.045 137.222C101.354 135.621 101.684 134.14 103.296 133.443Z" fill="white"/>
<path d="M93.4167 135.329C91.1819 135.853 90.4104 137.233 90.992 139.712L92.0921 144.401L93.4598 144.08L92.3568 139.379C91.9758 137.754 92.3462 136.972 93.7139 136.651C95.0572 136.336 95.7615 136.866 96.1425 138.49L97.2455 143.192L98.6133 142.871L97.5131 138.182C96.9315 135.703 95.6027 134.816 93.4167 135.329Z" fill="white"/>
<path d="M83.553 136.832C81.7001 136.946 80.4827 137.989 79.9948 139.653L81.2775 140.479C81.463 139.211 82.1835 138.261 83.6233 138.172C85.351 138.066 86.2414 139.255 86.3481 140.982C86.4557 142.723 85.7178 144 83.9901 144.107C82.5503 144.196 81.7191 143.355 81.3781 142.106L80.2069 143.084C80.8967 144.687 82.2325 145.56 84.0854 145.445C86.6644 145.286 87.9998 143.306 87.8505 140.89C87.7011 138.473 86.132 136.673 83.553 136.832Z" fill="white"/>
<path d="M75.6867 136.929L75.2641 140.567L71.252 140.101L71.6746 136.463L70.2667 136.299L69.2971 144.647L70.705 144.811L71.1073 141.347L75.1194 141.813L74.717 145.277L76.125 145.44L77.0946 137.092L75.6867 136.929Z" fill="white"/>
<path d="M58.2833 135.9L57.9043 136.91L60.8521 138.016L61.231 137.006L58.2833 135.9Z" fill="white"/>
<path d="M49.2144 127.91C47.66 126.872 46.0141 127.418 44.9102 128.958L46.3419 126.113L45.5908 125.612L43.1741 129.232L46.3663 131.363L47.028 130.372L45.0146 129.028C45.9126 128.225 46.8591 127.937 48.038 128.724C49.415 129.643 49.4245 131.097 48.4355 132.578C47.4674 134.029 46.1172 134.605 44.6567 133.63C43.53 132.878 43.322 131.744 43.7123 130.707L42.2024 130.755C41.8396 132.338 42.4509 133.771 43.9219 134.753C46.0918 136.202 48.3153 135.469 49.6874 133.414C51.1709 131.192 51.0087 129.108 49.2144 127.91Z" fill="white"/>
<path d="M38.8587 119.577L37.9946 120.486L41.2769 123.606L39.6178 125.351L36.8992 122.768L36.0351 123.677L38.7537 126.261L37.2156 127.879L33.9333 124.76L33.0692 125.669L37.3789 129.765L43.1685 123.673L38.8587 119.577Z" fill="white"/>
<path d="M34.6518 114.583L28.9792 118.935L27.4063 116.885L26.4111 117.648L30.4121 122.863L31.4073 122.1L29.842 120.06L35.5146 115.707L34.6518 114.583Z" fill="white"/>
<path d="M28.41 104.327L20.7971 107.887L21.3975 109.171L29.0104 105.611L28.41 104.327Z" fill="white"/>
<path d="M26.468 99.8527L22.0601 101.265L20.6334 101.827L21.5347 100.735L25.2012 95.8987L24.8032 94.6564L16.7998 97.2205L17.2322 98.5703L21.6281 97.162L23.1184 96.5923L22.1167 97.7826L18.4951 102.512L18.897 103.767L26.9004 101.202L26.468 99.8527Z" fill="white"/>
<path d="M23.0681 83.0476L15.9287 83.4336L15.7892 80.8534L14.5367 80.9212L14.8916 87.4844L16.1441 87.4166L16.0053 84.849L23.1447 84.4629L23.0681 83.0476Z" fill="white"/>
<path d="M23.4238 73.9258C23.6981 71.4826 22.0033 69.601 19.5851 69.3295C17.1793 69.0594 15.1095 70.5185 14.8353 72.9617C14.5596 75.4173 16.2558 77.2865 18.6616 77.5565C21.0798 77.828 23.1482 76.3814 23.4238 73.9258ZM22.079 73.7622C21.8831 75.5073 20.5608 76.2677 18.8281 76.0732C17.1079 75.8801 15.9746 74.8441 16.1705 73.0989C16.3664 71.3538 17.6998 70.6073 19.42 70.8004C21.1526 70.9949 22.2749 72.017 22.079 73.7622Z" fill="white"/>
<path d="M25.2818 64.4004C25.9324 62.1991 25.1158 60.846 22.6739 60.1243L18.0547 58.7591L17.6565 60.1063L22.2878 61.4751C23.8876 61.9479 24.3843 62.6572 23.9862 64.0044C23.5951 65.3276 22.7855 65.677 21.1857 65.2041L16.5544 63.8354L16.1562 65.1826L20.7754 66.5478C23.2174 67.2695 24.6454 66.5536 25.2818 64.4004Z" fill="white"/>
<path d="M28.8488 55.0412C29.6725 53.3775 29.3745 51.8023 28.1747 50.5505L26.8199 51.2515C27.8272 52.044 28.2915 53.1417 27.6516 54.4345C26.8836 55.9858 25.4089 56.1655 23.8576 55.3975C22.2951 54.6239 21.5551 53.3479 22.3231 51.7965C22.9631 50.5038 24.1063 50.202 25.3586 50.528L25.0946 49.0256C23.3604 48.8249 21.9384 49.5486 21.1148 51.2123C19.9683 53.528 21.0202 55.6724 23.1898 56.7465C25.3594 57.8205 27.7024 57.3569 28.8488 55.0412Z" fill="white"/>
<path d="M32.5885 48.2486L29.6423 46.0725L32.042 42.8236L34.9882 44.9998L35.8303 43.8597L29.0704 38.8664L28.2282 40.0066L31.0331 42.0784L28.6334 45.3272L25.8285 43.2554L24.9863 44.3955L31.7463 49.3887L32.5885 48.2486Z" fill="white"/>
<path d="M41.9226 33.7498L41.2292 32.9234L38.8174 34.9473L39.5108 35.7736L41.9226 33.7498Z" fill="white"/>
<path d="M53.4431 29.66C55.1119 28.8183 55.4482 27.1174 54.6513 25.398L56.4219 28.0453L57.2282 27.6386L55.2682 23.7523L51.8411 25.4807L52.3777 26.5447L54.5393 25.4545C54.7958 26.6317 54.5803 27.5973 53.3148 28.2355C51.8364 28.9811 50.5662 28.2731 49.7641 26.6827C48.979 25.126 49.1422 23.6669 50.7102 22.8761C51.9197 22.2661 53.0093 22.6438 53.7191 23.494L54.4213 22.1564C53.2226 21.0611 51.6738 20.8869 50.0946 21.6834C47.765 22.8582 47.3074 25.1542 48.4201 27.3605C49.6232 29.7461 51.5167 30.6315 53.4431 29.66Z" fill="white"/>
<path d="M65.519 24.8179L65.1544 23.6177L60.8217 24.934L60.1217 22.6296L63.7102 21.5394L63.3456 20.3392L59.757 21.4294L59.108 19.2931L63.4407 17.9768L63.0761 16.7766L57.3872 18.5049L59.8301 26.5462L65.519 24.8179Z" fill="white"/>
<path d="M71.9375 23.5738L70.9491 16.4927L73.5083 16.1355L73.3349 14.8932L66.8252 15.8018L66.9986 17.0441L69.5453 16.6886L70.5337 23.7698L71.9375 23.5738Z" fill="white"/>
<path d="M84.205 23.1583L84.8849 14.7817L83.4722 14.667L82.7922 23.0436L84.205 23.1583Z" fill="white"/>
<path d="M89.2156 23.6838L90.1695 19.1546L90.3866 17.6365L90.8898 18.9602L93.2784 24.5395L94.5549 24.8083L96.2868 16.5845L94.8999 16.2924L93.9486 20.8094L93.7062 22.3863L93.1675 20.9269L90.8493 15.4394L89.5605 15.168L87.8286 23.3917L89.2156 23.6838Z" fill="white"/>
<path d="M105.698 29.1086L108.917 22.7248L111.224 23.8883L111.789 22.7684L105.92 19.8086L105.356 20.9286L107.652 22.0865L104.432 28.4704L105.698 29.1086Z" fill="white"/>
<path d="M113.071 33.7062C115.059 35.1524 117.533 34.6095 118.964 32.6416C120.388 30.6839 120.143 28.1634 118.155 26.7172C116.157 25.2636 113.693 25.8139 112.269 27.7717C110.838 29.7395 111.073 32.2526 113.071 33.7062ZM113.878 32.6181C112.458 31.585 112.451 30.0597 113.476 28.6497C114.495 27.2499 115.956 26.7769 117.376 27.81C118.796 28.843 118.785 30.3711 117.767 31.7709C116.742 33.1809 115.298 33.6511 113.878 32.6181Z" fill="white"/>
<path d="M120.509 40.0687C122.102 41.721 123.682 41.6787 125.515 39.9112L128.982 36.5677L128.007 35.5564L124.531 38.9086C123.33 40.0667 122.468 40.1486 121.493 39.1373C120.535 38.1441 120.631 37.2676 121.831 36.1096L125.308 32.7574L124.333 31.7461L120.865 35.0896C119.032 36.8571 118.95 38.4524 120.509 40.0687Z" fill="white"/>
<path d="M127.01 47.9193C128.052 49.4557 129.57 49.9724 131.25 49.5449L131.308 48.0207C130.122 48.5068 128.938 48.3701 128.128 47.1763C127.156 45.7437 127.727 44.3719 129.159 43.4002C130.602 42.4215 132.077 42.4063 133.049 43.8389C133.858 45.0327 133.558 46.1762 132.657 47.1053L134.095 47.6157C135.124 46.2055 135.195 44.6115 134.152 43.0751C132.702 40.9366 130.318 40.7956 128.314 42.1545C126.311 43.5134 125.56 45.7808 127.01 47.9193Z" fill="white"/>
<path d="M130.96 54.2742L134.301 52.7722L135.957 56.456L132.616 57.958L133.198 59.2507L140.863 55.8045L140.281 54.5117L137.101 55.9417L135.445 52.2579L138.625 50.8279L138.044 49.5352L130.379 52.9814L130.96 54.2742Z" fill="white"/>
<path d="M139.067 69.793L140.128 69.599L139.562 66.502L138.5 66.696L139.067 69.793Z" fill="white"/>
<path d="M80.0002 48.833L71.5002 71.4997L48.8335 79.9997L71.5002 88.4997L80.0002 111.166L88.5002 88.4997L111.167 79.9997L88.5002 71.4997L80.0002 48.833Z" fill="white"/>
</svg>
